<svg width="1024" height="1024" viewBox="0 0 1024 1024" fill="none" xmlns="http://www.w3.org/2000/svg">
    <rect width="1024" height="1024" fill="#0E1F25" />
    <path
        d="M189.617 636.914C194.044 636.914 197.169 637.956 198.992 640.039C200.945 642.253 201.922 645.898 201.922 650.977C201.922 656.055 200.945 659.635 198.992 661.719C197.169 663.932 194.044 665.039 189.617 665.039H108.758C104.331 665.039 101.141 663.997 99.1875 661.914C97.3646 659.961 96.4531 656.576 96.4531 651.758V345.312C96.4531 340.495 97.3646 337.109 99.1875 335.156C101.141 333.073 104.331 332.031 108.758 332.031H189.617C194.044 332.031 197.169 333.138 198.992 335.352C200.945 337.435 201.922 341.016 201.922 346.094C201.922 351.172 200.945 354.818 198.992 357.031C197.169 359.115 194.044 360.156 189.617 360.156H125.75V636.914H189.617ZM914.617 332.031C919.044 332.031 922.169 333.073 923.992 335.156C925.945 337.109 926.922 340.495 926.922 345.312V651.758C926.922 656.576 925.945 659.961 923.992 661.914C922.169 663.997 919.044 665.039 914.617 665.039H833.758C829.331 665.039 826.141 663.932 824.188 661.719C822.365 659.635 821.453 656.055 821.453 650.977C821.453 645.898 822.365 642.253 824.188 640.039C826.141 637.956 829.331 636.914 833.758 636.914H897.625V360.156H833.758C829.331 360.156 826.141 359.115 824.188 357.031C822.365 354.818 821.453 351.172 821.453 346.094C821.453 341.016 822.365 337.435 824.188 335.352C826.141 333.138 829.331 332.031 833.758 332.031H914.617Z"
        fill="#DAEBF1" />
    <path
        d="M475.555 368.164C479.982 368.164 483.107 369.206 484.93 371.289C486.883 373.242 487.859 376.628 487.859 381.445V455.078C487.859 459.635 486.753 462.891 484.539 464.844C482.326 466.797 478.549 467.773 473.211 467.773C467.872 467.773 464.096 466.797 461.883 464.844C459.669 462.891 458.562 459.635 458.562 455.078V394.727H406.414V573.438H452.508C456.935 573.438 460.06 574.479 461.883 576.562C463.836 578.516 464.812 581.901 464.812 586.719C464.812 591.536 463.836 594.987 461.883 597.07C460.06 599.023 456.935 600 452.508 600H331.023C326.596 600 323.406 599.023 321.453 597.07C319.63 594.987 318.719 591.536 318.719 586.719C318.719 581.901 319.63 578.516 321.453 576.562C323.406 574.479 326.596 573.438 331.023 573.438H377.117V394.727H324.969V455.078C324.969 459.635 323.862 462.891 321.648 464.844C319.435 466.797 315.659 467.773 310.32 467.773C304.982 467.773 301.206 466.797 298.992 464.844C296.779 462.891 295.672 459.635 295.672 455.078V381.445C295.672 376.628 296.583 373.242 298.406 371.289C300.359 369.206 303.549 368.164 307.977 368.164H475.555ZM695.867 363.867C701.206 363.867 704.982 364.844 707.195 366.797C709.409 368.75 710.516 372.005 710.516 376.562V421.484C710.516 426.042 709.409 429.297 707.195 431.25C704.982 433.203 701.206 434.18 695.867 434.18C690.919 434.18 687.534 432.487 685.711 429.102C679.461 417.253 670.672 408.268 659.344 402.148C648.016 395.898 635.125 392.773 620.672 392.773C606.349 392.773 595.216 396.094 587.273 402.734C579.461 409.375 575.555 418.294 575.555 429.492C575.555 434.831 576.922 439.323 579.656 442.969C582.391 446.615 586.297 449.74 591.375 452.344C595.932 454.688 601.271 456.641 607.391 458.203C613.51 459.635 621.714 461.328 632 463.281C643.198 465.495 652.052 467.383 658.562 468.945C665.203 470.378 671.714 472.396 678.094 475C691.115 480.339 701.271 487.826 708.562 497.461C715.984 506.966 719.695 519.857 719.695 536.133C719.695 549.674 716.505 561.589 710.125 571.875C703.745 582.031 694.305 589.974 681.805 595.703C669.435 601.432 654.526 604.297 637.078 604.297C624.057 604.297 611.948 601.953 600.75 597.266C589.682 592.448 580.047 585.482 571.844 576.367V591.602C571.844 596.159 570.737 599.414 568.523 601.367C566.31 603.32 562.534 604.297 557.195 604.297C551.857 604.297 548.081 603.32 545.867 601.367C543.654 599.414 542.547 596.159 542.547 591.602V533.008C542.547 528.451 543.654 525.195 545.867 523.242C548.081 521.289 551.857 520.312 557.195 520.312C562.794 520.312 566.57 523.047 568.523 528.516C573.862 543.62 582.326 555.208 593.914 563.281C605.633 571.354 620.021 575.391 637.078 575.391C653.745 575.391 666.505 571.81 675.359 564.648C684.344 557.487 688.836 547.982 688.836 536.133C688.836 527.93 686.753 521.289 682.586 516.211C678.549 511.003 672.625 506.706 664.812 503.32C659.865 501.107 654.461 499.349 648.602 498.047C642.742 496.615 634.734 494.857 624.578 492.773C613.901 490.69 604.917 488.737 597.625 486.914C590.464 485.091 583.823 482.812 577.703 480.078C567.286 475.391 559.148 469.076 553.289 461.133C547.56 453.06 544.695 442.513 544.695 429.492C544.695 416.081 547.885 404.427 554.266 394.531C560.776 384.635 569.76 377.083 581.219 371.875C592.807 366.536 605.958 363.867 620.672 363.867C632.13 363.867 643.198 366.081 653.875 370.508C664.552 374.935 673.667 380.924 681.219 388.477V376.562C681.219 372.005 682.326 368.75 684.539 366.797C686.753 364.844 690.529 363.867 695.867 363.867Z"
        fill="#F87060" />
</svg>