<svg width="114.8" height="71.001" viewBox="0 0 114.8 71.001" xmlns="http://www.w3.org/2000/svg"><g id="svgGroup" stroke-linecap="round" fill-rule="evenodd" font-size="9pt" stroke="#4d96ef" stroke-width="1" fill="#4d96ef" style="stroke:#4d96ef;stroke-width:1;fill:#4d96ef"><path d="M 59.9 45.8 L 74.6 45.8 L 74.6 48.6 Q 74.6 53.9 77.7 56.7 Q 80.8 59.5 87.6 59.5 Q 93.6 59.5 96.8 57.55 Q 100 55.6 100 51.9 L 100 50.3 Q 100 47.6 98.1 45.9 Q 96.2 44.2 91.8 43.2 L 78.1 40.1 Q 68.8 37.8 64.65 33.3 Q 60.5 28.8 60.5 20.9 Q 60.5 10.7 67.4 5.35 Q 74.3 0 87.3 0 Q 96 0 101.85 2.6 Q 107.7 5.2 110.85 10.8 Q 114 16.4 114.8 25.2 L 100.1 25.2 L 100.1 22.4 Q 100.1 17.1 97.05 14.3 Q 94 11.5 87.3 11.5 Q 81.4 11.5 78.3 13.4 Q 75.2 15.3 75.2 19.1 L 75.2 20.7 Q 75.2 23.5 77.05 25.1 Q 78.9 26.7 83.2 27.8 L 97 30.9 Q 106.2 33.1 110.45 37.6 Q 114.7 42.1 114.7 50.1 Q 114.7 60.3 107.75 65.65 Q 100.8 71 87.6 71 Q 78.8 71 72.9 68.4 Q 67 65.8 63.8 60.2 Q 60.6 54.6 59.9 45.8 Z M 34.7 70 L 20.3 70 L 20.3 11.7 L 12.1 11.7 L 12.1 21.7 L 0 21.7 L 0 1 L 55.1 1 L 55.1 21.7 L 43 21.7 L 43 11.7 L 34.7 11.7 L 34.7 70 Z" vector-effect="non-scaling-stroke"/></g></svg>