<svg width="867" height="386" viewBox="0 0 867 386" fill="none" xmlns="http://www.w3.org/2000/svg">
<g filter="url(#filter0_g_9_15)">
<path d="M627 338H611V354H595V338H579V322H595V306H579V290H595V274H611V290H627V274H643V290H659V306H643V322H659V338H643V354H627V338ZM627 306H611V322H627V306ZM691 354H675V274H691V290H707V306H691V354ZM723 354H707V306H723V354ZM755 338H739V306H755V290H771V306H787V322H755V338ZM755 354V338H787V354H755ZM803 306V290H819V306H803ZM835 306V290H851V306H835ZM835 338H819V306H835V338ZM819 338V354H803V338H819ZM835 354V338H851V354H835Z" fill="#55FD34"/>
</g>
<g filter="url(#filter1_d_9_15)">
<path d="M29.696 128V44.416H1.664V33.664H69.376V44.416H41.344V128H29.696ZM81.496 128V33.664H92.76V71.68L103 61.056H127.704L141.016 74.496V128H129.752V77.312L122.968 70.016H105.944L92.76 83.456V128H81.496ZM173.275 128L159.835 114.56V74.496L173.275 61.056H205.019L218.459 74.496V114.56L205.019 128H173.275ZM178.139 119.04H200.155L207.195 112L207.067 77.056L200.155 70.016H178.139L171.099 77.056V112L178.139 119.04ZM250.543 128L237.231 114.56V61.056H248.495L248.367 111.872L255.279 119.04H271.919L285.103 105.856V61.056H296.367V128H285.103V117.632L274.863 128H250.543ZM320.958 151.936V142.592L357.054 142.464L364.094 135.552V117.504L353.726 128H329.15L315.71 114.56V74.496L329.15 61.056H353.726L364.094 71.68V61.056H375.358V138.496L361.918 151.936H320.958ZM350.91 119.04L364.094 105.728V83.456L350.91 70.016H334.014L326.974 77.056V112L334.014 119.04H350.91ZM396.246 128V33.664H407.51V71.68L417.75 61.056H442.454L455.766 74.496V128H444.502V77.312L437.718 70.016H420.694L407.51 83.456V128H396.246ZM488.665 128L476.889 116.352V70.016H469.849V61.056H477.145L479.961 43.904H488.153V61.056H502.361V70.016H488.153V112.384L494.169 118.656H505.305V128H488.665ZM518.996 128V118.656H554.452L560.468 112.512V104.448L554.068 98.048H527.572L515.796 86.528V72.96L527.572 61.056H565.332V70.528H532.948L527.06 76.288V82.816L533.204 88.96H559.956L571.732 100.48V116.224L560.084 128H518.996Z" fill="#F54B4B"/>
</g>
<path d="M455.78 189.93H446.89V179.77H455.78V189.93ZM455.78 242H446.89V203.9L455.78 195.01V242ZM518.005 242H509.115V205.17H482.445V242H473.555V197.55H482.445V203.9L488.795 197.55H509.115C511.57 197.55 513.645 198.439 515.338 200.217C517.116 201.91 518.005 203.985 518.005 206.44V242Z" fill="white"/>
<defs>
<filter id="filter0_g_9_15" x="564" y="259" width="302" height="110" filterUnits="userSpaceOnUse" color-interpolation-filters="sRGB">
<feFlood flood-opacity="0" result="BackgroundImageFix"/>
<feBlend mode="normal" in="SourceGraphic" in2="BackgroundImageFix" result="shape"/>
<feTurbulence type="fractalNoise" baseFrequency="0.0099999997764825821 0.0099999997764825821" numOctaves="3" seed="398" />
<feDisplacementMap in="shape" scale="30" xChannelSelector="R" yChannelSelector="G" result="displacedImage" width="100%" height="100%" />
<feMerge result="effect1_texture_9_15">
<feMergeNode in="displacedImage"/>
</feMerge>
</filter>
<filter id="filter1_d_9_15" x="1.66406" y="33.664" width="590.068" height="138.272" filterUnits="userSpaceOnUse" color-interpolation-filters="sRGB">
<feFlood flood-opacity="0" result="BackgroundImageFix"/>
<feColorMatrix in="SourceAlpha" type="matrix" values="0 0 0 0 0 0 0 0 0 0 0 0 0 0 0 0 0 0 127 0" result="hardAlpha"/>
<feOffset dx="15" dy="15"/>
<feGaussianBlur stdDeviation="2.5"/>
<feComposite in2="hardAlpha" operator="out"/>
<feColorMatrix type="matrix" values="0 0 0 0 0 0 0 0 0 0 0 0 0 0 0 0 0 0 0.25 0"/>
<feBlend mode="normal" in2="BackgroundImageFix" result="effect1_dropShadow_9_15"/>
<feBlend mode="normal" in="SourceGraphic" in2="effect1_dropShadow_9_15" result="shape"/>
</filter>
</defs>
</svg>
